<?xml version="1.0" encoding="utf-8"?>
<!-- Generator: Adobe Illustrator 16.0.0, SVG Export Plug-In . SVG Version: 6.00 Build 0)  -->
<!DOCTYPE svg PUBLIC "-//W3C//DTD SVG 1.1//EN" "http://www.w3.org/Graphics/SVG/1.1/DTD/svg11.dtd">
<svg version="1.1" id="Layer_1" xmlns="http://www.w3.org/2000/svg" xmlns:xlink="http://www.w3.org/1999/xlink" x="0px" y="0px"
	 width="767px" height="162px" viewBox="0 0 767 162" enable-background="new 0 0 767 162" xml:space="preserve">
<g>
	<g>
		<g>
			<path fill="#F6921E" d="M120.438,102.896c-0.784,1.113-8.168,6.877-10.279,17.572c-2.082,10.511,4.725,18.836,4.725,18.836
				c9.243,14.48,26.849,14.326,35.917,10.269c9.065-4.062,19.405-17.207,15.261-31.3c-4.149-14.099-1.761-21.924-1.761-21.924
				l0.882-11.361l1.766-5.273c0,0,3.255-11.356,10.454-19.403c7.191-8.047,8.503-11.464,9.256-14.552
				c0.755-3.088,3.023-12.341-1.969-21.037c-4.995-8.696-18.446-13.861-18.446-13.861s-15.13-4.17-28.419,9.397
				c-13.294,13.563-0.943,32.94-3.703,36.466C134.119,56.725,137.882,78.2,120.438,102.896z"/>
			<path fill="#FAAF40" d="M110.213,119.14c2.023-8.269,7.054-13.325,9.204-15.491c0.415-0.417,0.716-0.716,0.832-0.881
				c5.84-8.264,9.921-17.047,12.137-26.099c2.871-11.738,1.518-19.826,1.502-19.908l-0.015-0.098l0.062-0.078
				c0.124-0.16,0.216-0.366,0.278-0.613c0.319-1.315-0.245-3.686-0.964-6.686c-1.234-5.165-2.92-12.237-1.234-19.125
				c0.93-3.81,2.828-7.196,5.642-10.062c6.91-7.057,14.326-9.253,19.329-9.851c5.42-0.65,9.273,0.386,9.312,0.396
				c0.054,0.015,3.451,1.33,7.41,3.69c3.663,2.187,8.575,5.737,11.181,10.274c5.036,8.779,2.745,18.135,1.992,21.207
				c-0.75,3.068-2.028,6.496-9.31,14.646c-7.08,7.923-10.366,19.202-10.399,19.315l-1.76,5.258l-0.876,11.355l-0.013,0.025
				c0,0.006-0.029,0.099-0.072,0.273c-0.338,1.397-1.856,8.984,1.83,21.517c1.184,4.021,1.269,8.176,0.243,12.336
				c-2.305,9.443-9.717,16.589-15.627,19.237c-9.562,4.283-27.112,3.897-36.202-10.355c-0.052-0.062-6.841-8.501-4.763-19
				C110.014,119.984,110.113,119.562,110.213,119.14z M132.835,76.777c-2.229,9.109-6.338,17.938-12.204,26.249
				c-0.136,0.201-0.436,0.494-0.881,0.943c-2.229,2.242-7.609,7.66-9.366,16.547c-2.036,10.288,4.611,18.562,4.681,18.645
				c8.959,14.042,26.233,14.413,35.638,10.207c5.809-2.604,13.101-9.64,15.379-18.939c0.998-4.082,0.915-8.148-0.242-12.098
				c-3.72-12.64-2.181-20.336-1.838-21.748c0.034-0.145,0.065-0.238,0.072-0.273l0.884-11.367l1.771-5.304
				c0.031-0.103,3.354-11.479,10.495-19.475c7.214-8.073,8.475-11.444,9.211-14.46c0.74-3.031,2.998-12.253-1.95-20.872
				c-4.893-8.521-18.195-13.707-18.331-13.758c-0.013,0-3.789-1.015-9.129-0.371c-4.923,0.593-12.224,2.763-19.037,9.712
				c-2.752,2.809-4.616,6.128-5.526,9.856c-1.658,6.784,0.018,13.794,1.24,18.918c0.732,3.057,1.31,5.475,0.961,6.892
				c-0.07,0.273-0.17,0.511-0.304,0.701C134.503,57.735,135.565,65.632,132.835,76.777z"/>
		</g>
		<g>
			<path fill="#FFFFFF" stroke="#FFFFFF" stroke-miterlimit="10" d="M156.295,51.848c-8.132-1.99-13.243-9.666-11.413-17.146
				c1.832-7.474,9.904-11.923,18.039-9.933c8.137,1.995,13.248,9.67,11.415,17.145C172.507,49.389,164.429,53.838,156.295,51.848z"
				/>
			<path fill="#FFFFFF" stroke="#FFFFFF" stroke-miterlimit="10" d="M144.658,34.646c1.858-7.583,10.075-12.114,18.32-10.099
				c8.248,2.021,13.441,9.835,11.585,17.424c-1.856,7.583-10.075,12.114-18.323,10.098
				C147.995,50.049,142.799,42.234,144.658,34.646z M174.115,41.858c1.796-7.341-3.248-14.908-11.243-16.867
				c-8-1.959-15.97,2.423-17.766,9.769c-1.796,7.34,3.248,14.913,11.243,16.866C164.347,53.585,172.316,49.204,174.115,41.858z"/>
		</g>
		<g>
			<path fill="#FFFFFF" stroke="#FFFFFF" stroke-miterlimit="10" d="M135.049,137.676c-8.135-1.994-13.246-9.67-11.416-17.145
				c1.831-7.48,9.911-11.929,18.045-9.934c8.134,1.99,13.246,9.666,11.413,17.139C151.261,135.217,143.186,139.666,135.049,137.676z
				"/>
			<path fill="#FFFFFF" stroke="#FFFFFF" stroke-miterlimit="10" d="M123.412,120.475c1.858-7.588,10.077-12.114,18.322-10.099
				c8.243,2.021,13.439,9.835,11.581,17.424c-1.858,7.582-10.076,12.113-18.318,10.093
				C126.752,135.872,121.556,128.062,123.412,120.475z M152.867,127.686c1.799-7.346-3.24-14.912-11.243-16.866
				c-7.998-1.964-15.967,2.417-17.766,9.763c-1.796,7.34,3.25,14.914,11.245,16.873
				C143.104,139.408,151.068,135.031,152.867,127.686z"/>
		</g>
	</g>
	<g>
		<path fill="#F6921E" d="M25.873,120.373c-1.099,0.676-2.407,1.141-3.928,1.393c-1.521,0.252-3.168,0.381-4.941,0.381
			c-1.436,0-2.894-0.041-4.368-0.129c-1.479-0.082-2.98-0.123-4.498-0.123c-0.34,0-0.508-0.34-0.508-1.016L21.818,17.251
			c0.083-0.675,0.443-1.479,1.077-2.407c0.634-0.928,1.33-1.794,2.091-2.598c0.76-0.799,1.539-1.495,2.343-2.087
			c0.802-0.593,1.456-0.887,1.964-0.887h18.117c0.335,0,0.505,0.17,0.505,0.505v0.382h0.126l-4.433,31.924
			c3.208-1.268,6.987-2.258,11.337-2.979c4.351-0.717,8.846-1.078,13.493-1.078c5.658,0,10.875,0.51,15.645,1.521
			c4.771,1.016,8.89,2.768,12.354,5.258c3.461,2.495,6.186,5.789,8.17,9.882c1.982,4.098,2.977,9.227,2.977,15.392
			c0,4.985-0.74,10.155-2.216,15.521c-1.479,5.36-3.737,10.408-6.779,15.139c-3.042,4.728-6.864,8.949-11.464,12.666
			c-4.603,3.717-10.031,6.418-16.279,8.109c-2.618,0.674-5.721,1.226-9.312,1.645c-3.591,0.427-7.328,0.633-11.212,0.633
			c-4.054,0-8.002-0.272-11.843-0.818c-3.846-0.552-7.075-1.418-9.694-2.6c-0.675-0.169-1.183-0.252-1.518-0.252
			C26.841,120.121,26.377,120.204,25.873,120.373z M71.479,52.851c-2.958-1.351-6.462-2.026-10.516-2.026
			c-3.042,0-5.978,0.402-8.805,1.201c-2.83,0.804-4.961,2.052-6.396,3.738c-0.761,0.933-1.606,2.448-2.534,4.561
			c-0.93,2.114-1.796,4.604-2.598,7.475c-0.804,2.871-1.479,5.974-2.025,9.31c-0.551,3.34-0.825,6.65-0.825,9.943
			c0,3.381,0.317,6.547,0.951,9.506c0.634,2.953,1.75,5.51,3.355,7.66c1.604,2.154,3.737,3.846,6.4,5.067
			c2.66,1.226,5.971,1.84,9.943,1.84c3.042,0,5.975-0.401,8.804-1.206c2.828-0.799,4.961-2.047,6.397-3.737
			c0.761-0.841,1.604-2.341,2.534-4.495c0.928-2.154,1.794-4.645,2.598-7.475c0.802-2.83,1.477-5.934,2.025-9.309
			c0.549-3.382,0.825-6.717,0.825-10.012c0-4.814-0.74-9.248-2.217-13.299C77.918,57.536,75.279,54.624,71.479,52.851z"/>
		<path fill="#F6921E" d="M258.463,77.171c-1.436-0.675-3.062-1.159-4.876-1.454c-1.818-0.293-3.696-0.443-5.637-0.443
			c-3.126,0-6.083,0.377-8.869,1.14c-2.786,0.757-4.9,1.984-6.335,3.675c-2.111,2.448-3.631,5.47-4.56,9.058
			c-0.93,3.587-1.647,7.222-2.155,10.892c-0.505,3.676-0.992,7.099-1.456,10.263c-0.464,3.166-1.289,5.557-2.469,7.16
			c-0.931,1.181-1.923,2.217-2.977,3.104c-1.057,0.887-1.881,1.33-2.471,1.33h-18.243c-0.335,0-0.506-0.551-0.506-1.648
			c0-0.759,0.062-1.646,0.189-2.661c0.128-1.011,0.254-2.067,0.381-3.165c0.126-1.098,0.273-2.135,0.443-3.104
			c0.167-0.974,0.293-1.752,0.379-2.346l12.67-91.719c0.929-1.773,1.773-3.186,2.534-4.243c0.76-1.056,1.518-1.882,2.278-2.474
			c0.76-0.588,1.585-0.99,2.472-1.201s1.92-0.314,3.103-0.314c1.268,0,2.743,0.062,4.434,0.186c1.688,0.129,3.716,0.191,6.083,0.191
			c0.76,0,1.518-0.021,2.278-0.062c0.761-0.041,1.562-0.062,2.407-0.062c0.423,0,0.634,0.293,0.634,0.887l-7.854,56.373
			c3.799-1.521,7.367-2.51,10.704-2.98c3.335-0.458,6.438-0.778,9.312-0.948c2.869-0.165,5.487-0.273,7.853-0.314
			c2.364-0.041,4.519-0.402,6.461-1.078c1.941-0.675,3.694-1.773,5.258-3.293c1.562-1.521,2.934-3.84,4.116-6.969
			c0.423-1.18,1.078-2.428,1.964-3.737c0.887-1.309,1.899-2.49,3.041-3.547c1.14-1.056,2.343-1.943,3.608-2.66
			c1.268-0.716,2.493-1.077,3.675-1.077v0.128c1.014,0,2.49,0.021,4.434,0.062c1.943,0.041,3.758,0.062,5.448,0.062
			c0.928,0,1.75-0.021,2.469-0.062c0.717-0.042,1.286-0.062,1.711-0.062c0.335,0,0.505,0.253,0.505,0.758
			c0,0.675-0.296,1.669-0.887,2.979c-0.59,1.309-1.265,2.639-2.026,3.99c-0.76,1.351-1.479,2.578-2.155,3.67
			c-0.675,1.104-1.098,1.778-1.266,2.031c-1.946,2.701-4.098,5.237-6.461,7.598c-2.366,2.366-4.9,4.433-7.601,6.206
			c5.15,2.707,8.741,6.315,10.769,10.836c2.026,4.516,3.039,9.479,3.039,14.882c0,1.943-0.062,4.099-0.188,6.464
			c-0.128,2.367-0.361,4.707-0.698,7.031c-0.337,2.325-0.76,4.453-1.266,6.397c-0.507,1.943-1.183,3.464-2.028,4.562
			c-0.931,1.181-1.921,2.217-2.978,3.104c-1.056,0.887-1.879,1.33-2.469,1.33h-18.117c-0.423,0-0.635-0.551-0.635-1.648
			c0-0.759,0.065-1.646,0.191-2.661c0.126-1.011,0.294-2.067,0.507-3.165c0.209-1.098,0.4-2.135,0.57-3.104
			c0.168-0.974,0.294-1.752,0.379-2.346c0.508-3.293,0.76-6.84,0.76-10.639c0-2.196-0.146-4.352-0.443-6.465
			c-0.296-2.107-0.822-4.092-1.583-5.953c-0.76-1.856-1.773-3.547-3.041-5.068c-1.266-1.521-2.913-2.742-4.941-3.675H258.463z"/>
		<path fill="#F6921E" d="M410.74,54.119c0.676,1.433,1.244,2.913,1.712,4.434c0.46,1.521,0.694,2.995,0.694,4.433
			c0,3.212-1.352,6.016-4.055,8.423c-2.702,2.407-6.205,4.542-10.512,6.397c-4.31,1.86-9.104,3.463-14.379,4.813
			c-5.28,1.352-10.475,2.578-15.585,3.676s-9.86,2.072-14.252,2.913c-4.392,0.845-7.812,1.731-10.26,2.659
			c0.338,3.8,1.118,6.949,2.343,9.439c1.225,2.494,2.745,4.479,4.562,5.953c1.814,1.48,3.819,2.516,6.018,3.104
			c2.193,0.592,4.432,0.887,6.715,0.887c1.773,0,3.502-0.145,5.192-0.443c1.689-0.295,3.25-0.696,4.688-1.201
			c1.433-0.505,2.679-1.057,3.739-1.649c1.054-0.588,1.835-1.181,2.342-1.773c1.013-1.093,1.921-2.722,2.725-4.876
			c0.801-2.155,1.75-4.305,2.85-6.459c1.096-2.155,2.49-4.099,4.181-5.83c1.688-1.728,3.926-2.723,6.714-2.975h0.253
			c0.59,0,1.286-0.021,2.091-0.067c0.801-0.042,1.668-0.062,2.598-0.062c0.929,0,1.875,0.062,2.848,0.19s1.838,0.341,2.598,0.634
			c0.76,0.294,1.372,0.758,1.838,1.393c0.465,0.634,0.695,1.459,0.695,2.469c0,1.607-0.547,3.464-1.645,5.577
			c-1.098,2.114-2.452,4.243-4.057,6.397s-3.337,4.201-5.192,6.145c-1.857,1.943-3.546,3.506-5.066,4.686
			c-4.561,3.547-10.135,6.207-16.724,7.98c-6.587,1.773-13.302,2.664-20.142,2.664c-5.913,0-11.235-0.551-15.963-1.648
			c-4.731-1.1-8.763-2.913-12.098-5.449c-3.338-2.531-5.892-5.825-7.666-9.882c-1.773-4.052-2.66-9.036-2.66-14.949
			c0-6.588,1.119-13.108,3.356-19.573c2.237-6.459,5.68-12.223,10.325-17.29c4.645-5.067,10.534-9.186,17.673-12.351
			c7.135-3.17,15.645-4.752,25.527-4.752c3.63,0,7.284,0.273,10.959,0.825c3.672,0.546,7.114,1.454,10.323,2.722
			c3.209,1.268,6.083,2.938,8.616,5.005c2.533,2.073,4.516,4.624,5.953,7.665L410.74,54.119z M377.422,53.104
			c-2.956-1.351-6.461-2.026-10.514-2.026c-3.042,0-5.977,0.402-8.807,1.202c-2.83,0.804-4.961,2.052-6.397,3.737
			c-1.098,1.268-2.049,2.913-2.851,4.944c-0.802,2.025-1.518,4.201-2.152,6.521c-0.634,2.325-1.142,4.67-1.521,7.031
			c-0.381,2.366-0.696,4.521-0.951,6.464c1.436-0.34,3.441-0.784,6.018-1.33c2.575-0.552,5.385-1.227,8.427-2.031
			c3.038-0.799,6.122-1.686,9.247-2.66c3.124-0.969,5.954-2.088,8.487-3.356c2.534-1.268,4.604-2.66,6.206-4.18
			c1.604-1.521,2.407-3.166,2.407-4.939c0-1.943-0.803-3.778-2.407-5.51C381.012,55.238,379.28,53.948,377.422,53.104z"/>
		<path fill="#929497" d="M515.002,40.056h13.302h0.252c0.255,0,0.383,0.17,0.383,0.505v0.381l-10.008,72.966
			c-0.256,0.429-0.614,1.077-1.078,1.964c-0.468,0.887-1.036,1.773-1.712,2.66s-1.392,1.671-2.152,2.346
			c-0.76,0.676-1.564,1.016-2.407,1.016c-1.183,0-2.577,0.041-4.181,0.123c-1.605,0.088-3.167,0.129-4.688,0.129
			c-1.521,0-2.831-0.102-3.926-0.319c-1.101-0.206-2.008-0.442-2.725-0.694c-0.719-0.254-1.33-0.485-1.837-0.697
			c-0.507-0.211-0.973-0.314-1.395-0.314c-0.338,0-0.758,0.083-1.267,0.252v-0.127c-2.956,1.184-6.505,2.092-10.641,2.727
			c-4.141,0.633-8.447,0.947-12.921,0.947c-5.66,0-10.878-0.484-15.648-1.459c-4.77-0.968-8.91-2.659-12.416-5.066
			c-3.505-2.408-6.226-5.655-8.169-9.754c-1.944-4.098-2.912-9.268-2.912-15.521c0-4.979,0.736-10.134,2.217-15.454
			c1.477-5.32,3.736-10.366,6.775-15.14c3.041-4.768,6.861-9.011,11.467-12.732c4.6-3.712,10.025-6.418,16.279-8.104
			c2.7-0.763,5.763-1.351,9.183-1.778c3.42-0.417,6.987-0.629,10.706-0.629c4.056,0,8.002,0.294,11.844,0.887
			c3.843,0.588,7.287,1.475,10.324,2.66c0.676,0.17,1.227,0.253,1.648,0.253c0.928,0,1.814-0.32,2.658-0.949
			c0.848-0.634,1.776-0.954,2.79-0.954l0.125,0.129L515.002,40.056z M478.137,50.825c-2.789,0-5.193,0.211-7.222,0.629
			c-2.026,0.428-3.782,1.104-5.259,2.031c-1.477,0.927-2.721,2.149-3.735,3.67c-1.014,1.521-1.945,3.34-2.787,5.449
			c-1.014,2.789-1.985,6.376-2.912,10.769c-0.932,4.392-1.395,8.913-1.395,13.558c0,3.376,0.317,6.521,0.948,9.438
			c0.633,2.912,1.73,5.47,3.294,7.665c1.562,2.195,3.652,3.923,6.271,5.19c2.619,1.269,5.957,1.902,10.008,1.902
			c3.125,0,6.101-0.401,8.934-1.206c2.828-0.799,4.959-2.047,6.397-3.737c0.76-0.841,1.602-2.341,2.533-4.495
			c0.928-2.154,1.794-4.665,2.598-7.536c0.802-2.871,1.474-5.975,2.026-9.315c0.548-3.334,0.822-6.649,0.822-9.943
			c0-3.376-0.338-6.542-1.014-9.5c-0.675-2.954-1.794-5.51-3.355-7.666c-1.563-2.155-3.674-3.84-6.336-5.067
			C485.295,51.438,482.021,50.825,478.137,50.825z"/>
		<path fill="#929497" d="M603.427,38.283c6.08,0,11.549,0.546,16.405,1.645c4.857,1.098,8.972,2.851,12.353,5.258
			c3.375,2.407,5.952,5.551,7.729,9.438c1.773,3.887,2.661,8.614,2.661,14.186c0,9.124-1.415,17.124-4.245,24.011
			c-2.831,6.882-6.759,12.624-11.782,17.228c-5.025,4.604-11.004,8.088-17.926,10.449c-6.925,2.365-14.44,3.551-22.55,3.551
			c-3.212,0-6.38-0.148-9.502-0.443c-3.124-0.298-6.081-0.866-8.867-1.711l-3.676,25.841c-0.086,0.676-0.424,1.5-1.012,2.475
			c-0.592,0.969-1.267,1.896-2.027,2.783c-0.76,0.887-1.54,1.649-2.343,2.284c-0.805,0.635-1.458,0.948-1.964,0.948l-18.116,0.129
			h-0.382c-0.335,0-0.505-0.175-0.505-0.511l-0.126,0.13l14.441-106.546c0.081-0.675,0.422-1.475,1.013-2.407
			c0.59-0.928,1.267-1.814,2.028-2.66c0.76-0.84,1.539-1.562,2.343-2.155c0.801-0.587,1.456-0.886,1.964-0.886h13.429
			c1.014,0,1.878,0.278,2.598,0.825c0.716,0.551,1.537,0.825,2.469,0.825c0.93,0,2.007-0.253,3.229-0.764
			c1.224-0.504,2.831-1.03,4.813-1.583c1.986-0.546,4.395-1.077,7.225-1.582C595.929,38.536,599.373,38.283,603.427,38.283z
			 M605.96,54.119c-1.438-0.675-3.061-1.16-4.878-1.458c-1.816-0.294-3.692-0.443-5.637-0.443c-3.128,0-6.081,0.381-8.867,1.139
			c-2.787,0.763-4.898,1.985-6.334,3.675c-0.76,0.928-1.607,2.469-2.533,4.624c-0.932,2.155-1.797,4.665-2.6,7.537
			c-0.804,2.871-1.477,6-2.024,9.377c-0.553,3.376-0.825,6.711-0.825,10.006c0,3.381,0.315,6.525,0.95,9.438
			c0.635,2.913,1.73,5.429,3.294,7.537c1.563,2.113,3.675,3.783,6.336,5.005c2.658,1.228,5.973,1.841,9.944,1.841
			c3.04,0,5.993-0.382,8.867-1.145c2.868-0.758,5.023-1.979,6.459-3.67c0.763-0.929,1.604-2.475,2.536-4.625
			c0.929-2.154,1.775-4.664,2.533-7.541c0.76-2.866,1.415-5.975,1.963-9.31c0.55-3.335,0.823-6.65,0.823-9.944
			c0-4.815-0.739-9.248-2.216-13.304C612.272,58.805,609.676,55.892,605.96,54.119z"/>
		<path fill="#929497" d="M720.483,38.283c6.08,0,11.546,0.546,16.406,1.645c4.854,1.098,8.972,2.851,12.35,5.258
			s5.955,5.551,7.73,9.438c1.773,3.887,2.659,8.614,2.659,14.186c0,9.124-1.415,17.124-4.246,24.011
			c-2.83,6.882-6.756,12.624-11.781,17.228s-11.001,8.088-17.926,10.449c-6.925,2.365-14.44,3.551-22.548,3.551
			c-3.211,0-6.38-0.148-9.501-0.443c-3.128-0.298-6.083-0.866-8.87-1.711l-3.675,25.841c-0.084,0.676-0.422,1.5-1.013,2.475
			c-0.589,0.969-1.265,1.896-2.024,2.783c-0.763,0.887-1.543,1.649-2.344,2.284c-0.804,0.635-1.459,0.948-1.963,0.948l-18.118,0.129
			h-0.382c-0.335,0-0.504-0.175-0.504-0.511l-0.128,0.13l14.44-106.546c0.085-0.675,0.425-1.475,1.014-2.407
			c0.591-0.928,1.27-1.814,2.029-2.66c0.76-0.84,1.538-1.562,2.344-2.155c0.802-0.587,1.456-0.886,1.963-0.886h13.428
			c1.013,0,1.881,0.278,2.6,0.825c0.717,0.551,1.538,0.825,2.47,0.825c0.926,0,2.003-0.253,3.229-0.764
			c1.223-0.504,2.827-1.03,4.813-1.583c1.985-0.546,4.391-1.077,7.222-1.582C712.985,38.536,716.43,38.283,720.483,38.283z
			 M723.017,54.119c-1.438-0.675-3.061-1.16-4.88-1.458c-1.816-0.294-3.692-0.443-5.635-0.443c-3.127,0-6.08,0.381-8.867,1.139
			c-2.789,0.763-4.9,1.985-6.336,3.675c-0.76,0.928-1.604,2.469-2.533,4.624c-0.93,2.155-1.797,4.665-2.598,7.537
			c-0.804,2.871-1.477,6-2.026,9.377c-0.551,3.376-0.824,6.711-0.824,10.006c0,3.381,0.317,6.525,0.952,9.438
			c0.632,2.913,1.729,5.429,3.293,7.537c1.562,2.113,3.672,3.783,6.336,5.005c2.659,1.228,5.971,1.841,9.942,1.841
			c3.042,0,5.995-0.382,8.869-1.145c2.869-0.758,5.023-1.979,6.459-3.67c0.76-0.929,1.604-2.475,2.533-4.625
			c0.932-2.154,1.776-4.664,2.534-7.541c0.76-2.866,1.415-5.975,1.965-9.31c0.548-3.335,0.824-6.65,0.824-9.944
			c0-4.815-0.74-9.248-2.217-13.304C729.33,58.805,726.73,55.892,723.017,54.119z"/>
	</g>
</g>
</svg>
