<?xml version="1.0" encoding="utf-8"?>
<!-- Generator: Adobe Illustrator 16.0.0, SVG Export Plug-In . SVG Version: 6.00 Build 0)  -->
<!DOCTYPE svg PUBLIC "-//W3C//DTD SVG 1.1//EN" "http://www.w3.org/Graphics/SVG/1.1/DTD/svg11.dtd">
<svg version="1.1" id="Layer_1" xmlns="http://www.w3.org/2000/svg" xmlns:xlink="http://www.w3.org/1999/xlink" x="0px" y="0px"
	 width="1024px" height="768px" viewBox="0 0 1024 768" enable-background="new 0 0 1024 768" xml:space="preserve">
<g>
	<g>
		<g>
			<path fill="#F6921E" d="M186.603,398.715c-0.966,1.371-10.062,8.472-12.663,21.647c-2.565,12.948,5.82,23.204,5.82,23.204
				c11.386,17.838,33.075,17.648,44.245,12.649c11.167-5.004,23.906-21.197,18.8-38.559c-5.111-17.368-2.169-27.008-2.169-27.008
				l1.086-13.995l2.175-6.497c0,0,4.01-13.99,12.878-23.903c8.859-9.913,10.475-14.123,11.402-17.926
				c0.93-3.804,3.725-15.203-2.426-25.916c-6.153-10.713-22.724-17.076-22.724-17.076s-18.639-5.137-35.009,11.576
				c-16.377,16.708-1.162,40.579-4.562,44.922C203.456,341.835,208.091,368.291,186.603,398.715z"/>
			<path fill="#FAAF40" d="M174.007,418.725c2.492-10.187,8.69-16.416,11.338-19.083c0.511-0.515,0.882-0.883,1.025-1.086
				c7.195-10.18,12.222-21,14.952-32.151c3.537-14.459,1.87-24.423,1.851-24.525l-0.019-0.12l0.076-0.096
				c0.152-0.197,0.267-0.451,0.343-0.755c0.394-1.62-0.302-4.541-1.188-8.237c-1.521-6.363-3.598-15.075-1.521-23.56
				c1.146-4.693,3.483-8.864,6.95-12.395c8.512-8.694,17.647-11.399,23.811-12.135c6.677-0.801,11.423,0.476,11.472,0.488
				c0.066,0.019,4.251,1.639,9.128,4.546c4.512,2.694,10.564,7.068,13.774,12.657c6.204,10.814,3.382,22.34,2.455,26.124
				c-0.924,3.779-2.499,8.002-11.469,18.042c-8.722,9.76-12.77,23.654-12.811,23.795l-2.168,6.476l-1.08,13.99l-0.016,0.031
				c0,0.007-0.036,0.121-0.089,0.337c-0.416,1.722-2.286,11.068,2.254,26.506c1.458,4.954,1.563,10.072,0.299,15.197
				c-2.839,11.633-11.97,20.436-19.25,23.698c-11.78,5.276-33.399,4.801-44.598-12.757c-0.064-0.077-8.427-10.473-5.868-23.406
				C173.761,419.766,173.883,419.245,174.007,418.725z M201.874,366.538c-2.746,11.221-7.808,22.099-15.034,32.335
				c-0.167,0.248-0.537,0.609-1.085,1.162c-2.747,2.762-9.374,9.437-11.539,20.385c-2.508,12.674,5.68,22.867,5.766,22.968
				c11.037,17.299,32.316,17.756,43.903,12.574c7.156-3.207,16.139-11.875,18.945-23.331c1.229-5.029,1.127-10.038-0.298-14.903
				c-4.582-15.571-2.687-25.052-2.265-26.792c0.042-0.179,0.08-0.293,0.089-0.337l1.089-14.002l2.181-6.534
				c0.039-0.127,4.131-14.142,12.929-23.991c8.887-9.945,10.44-14.098,11.348-17.813c0.912-3.733,3.693-15.094-2.403-25.711
				c-6.027-10.497-22.414-16.886-22.582-16.949c-0.016,0-4.667-1.251-11.246-0.458c-6.064,0.73-15.059,3.404-23.452,11.964
				c-3.391,3.46-5.687,7.55-6.807,12.142c-2.042,8.357,0.022,16.993,1.527,23.305c0.901,3.765,1.613,6.744,1.184,8.49
				c-0.086,0.337-0.209,0.629-0.375,0.864C203.929,343.081,205.237,352.809,201.874,366.538z"/>
		</g>
		<g>
			<path fill="#FFFFFF" stroke="#FFFFFF" stroke-miterlimit="10" d="M230.774,335.828c-10.018-2.451-16.314-11.907-14.059-21.122
				c2.257-9.208,12.201-14.688,22.222-12.236c10.024,2.457,16.32,11.913,14.062,21.12
				C250.746,332.799,240.795,338.279,230.774,335.828z"/>
			<path fill="#FFFFFF" stroke="#FFFFFF" stroke-miterlimit="10" d="M216.438,314.637c2.29-9.341,12.412-14.923,22.569-12.44
				c10.161,2.49,16.559,12.116,14.272,21.464c-2.287,9.341-12.412,14.923-22.573,12.439
				C220.55,333.612,214.149,323.984,216.438,314.637z M252.728,323.521c2.213-9.043-4.001-18.365-13.851-20.778
				c-9.855-2.414-19.673,2.984-21.886,12.034c-2.213,9.042,4.001,18.372,13.851,20.778
				C240.693,337.968,250.511,332.57,252.728,323.521z"/>
		</g>
		<g>
			<path fill="#FFFFFF" stroke="#FFFFFF" stroke-miterlimit="10" d="M204.602,441.56c-10.021-2.457-16.317-11.913-14.063-21.121
				c2.255-9.215,12.209-14.694,22.229-12.236c10.021,2.451,16.317,11.907,14.06,21.112
				C224.574,438.53,214.625,444.011,204.602,441.56z"/>
			<path fill="#FFFFFF" stroke="#FFFFFF" stroke-miterlimit="10" d="M190.266,420.369c2.29-9.348,12.414-14.924,22.571-12.44
				c10.154,2.489,16.556,12.115,14.267,21.465c-2.289,9.34-12.412,14.922-22.566,12.433
				C194.38,439.337,187.98,429.717,190.266,420.369z M226.551,429.252c2.217-9.049-3.991-18.37-13.85-20.777
				c-9.853-2.419-19.67,2.978-21.886,12.027c-2.213,9.042,4.003,18.372,13.853,20.785
				C214.524,443.693,224.335,438.302,226.551,429.252z"/>
		</g>
	</g>
	<g>
		<path fill="#F6921E" d="M70.107,420.244c-1.353,0.832-2.965,1.405-4.839,1.716c-1.873,0.31-3.903,0.469-6.087,0.469
			c-1.769,0-3.565-0.051-5.381-0.159c-1.822-0.101-3.671-0.151-5.541-0.151c-0.419,0-0.625-0.418-0.625-1.251l17.479-127.659
			c0.102-0.832,0.546-1.823,1.327-2.965c0.781-1.144,1.639-2.21,2.576-3.201c0.937-0.984,1.896-1.842,2.886-2.572
			c0.988-0.73,1.793-1.092,2.419-1.092h22.318c0.413,0,0.623,0.209,0.623,0.622v0.47h0.155l-5.461,39.327
			c3.953-1.562,8.607-2.781,13.967-3.67c5.359-0.883,10.897-1.328,16.622-1.328c6.97,0,13.396,0.628,19.273,1.873
			c5.877,1.251,10.951,3.41,15.219,6.477c4.264,3.074,7.62,7.132,10.064,12.174c2.441,5.048,3.667,11.366,3.667,18.961
			c0,6.141-0.911,12.51-2.73,19.121c-1.822,6.604-4.604,12.821-8.351,18.65c-3.747,5.823-8.456,11.023-14.123,15.603
			c-5.67,4.579-12.357,7.906-20.055,9.99c-3.225,0.83-7.048,1.51-11.471,2.025c-4.423,0.526-9.027,0.78-13.812,0.78
			c-4.995,0-9.858-0.336-14.589-1.009c-4.737-0.68-8.716-1.746-11.942-3.202c-0.832-0.208-1.457-0.311-1.87-0.311
			C71.3,419.934,70.729,420.036,70.107,420.244z M126.291,337.063c-3.645-1.664-7.96-2.496-12.955-2.496
			c-3.747,0-7.364,0.496-10.846,1.479c-3.486,0.991-6.111,2.528-7.88,4.605c-0.937,1.149-1.979,3.016-3.122,5.619
			c-1.146,2.604-2.213,5.671-3.201,9.208c-0.991,3.537-1.822,7.359-2.495,11.468c-0.679,4.115-1.017,8.192-1.017,12.25
			c0,4.165,0.391,8.064,1.172,11.71c0.781,3.639,2.155,6.788,4.134,9.436c1.975,2.654,4.604,4.737,7.885,6.243
			c3.276,1.51,7.355,2.267,12.249,2.267c3.747,0,7.36-0.494,10.846-1.485c3.484-0.984,6.112-2.521,7.881-4.604
			c0.937-1.035,1.975-2.883,3.122-5.537c1.143-2.654,2.21-5.722,3.201-9.208c0.988-3.486,1.819-7.309,2.495-11.468
			c0.676-4.166,1.017-8.274,1.017-12.333c0-5.931-0.912-11.392-2.731-16.383C134.222,342.835,130.971,339.248,126.291,337.063z"/>
		<path fill="#F6921E" d="M356.636,367.023c-1.769-0.832-3.772-1.428-6.007-1.791c-2.24-0.361-4.553-0.546-6.945-0.546
			c-3.851,0-7.493,0.464-10.925,1.404c-3.433,0.933-6.037,2.444-7.805,4.527c-2.601,3.016-4.474,6.738-5.617,11.158
			c-1.146,4.419-2.029,8.897-2.654,13.418c-0.622,4.528-1.223,8.744-1.794,12.643c-0.571,3.9-1.587,6.846-3.042,8.82
			c-1.146,1.455-2.369,2.731-3.667,3.823c-1.302,1.093-2.318,1.639-3.044,1.639h-22.474c-0.414,0-0.624-0.679-0.624-2.03
			c0-0.935,0.077-2.027,0.233-3.278c0.158-1.245,0.313-2.547,0.47-3.899c0.155-1.352,0.336-2.63,0.546-3.823
			c0.206-1.199,0.361-2.158,0.467-2.889l15.608-112.99c1.144-2.185,2.185-3.925,3.122-5.227c0.937-1.301,1.87-2.318,2.807-3.048
			c0.936-0.724,1.952-1.219,3.045-1.48c1.092-0.26,2.365-0.387,3.822-0.387c1.562,0,3.379,0.076,5.462,0.229
			c2.079,0.159,4.578,0.235,7.493,0.235c0.937,0,1.87-0.025,2.807-0.077c0.937-0.05,1.923-0.076,2.965-0.076
			c0.521,0,0.781,0.362,0.781,1.092l-9.675,69.446c4.681-1.873,9.075-3.093,13.187-3.671c4.108-0.564,7.932-0.958,11.472-1.168
			c3.534-0.203,6.759-0.336,9.674-0.387c2.912-0.051,5.566-0.495,7.959-1.328c2.391-0.832,4.551-2.185,6.477-4.057
			c1.924-1.873,3.614-4.731,5.071-8.585c0.521-1.454,1.328-2.991,2.42-4.604c1.092-1.613,2.34-3.068,3.747-4.37
			c1.404-1.301,2.886-2.393,4.445-3.276c1.562-0.882,3.071-1.327,4.528-1.327v0.158c1.249,0,3.068,0.025,5.462,0.076
			c2.393,0.051,4.629,0.076,6.711,0.076c1.144,0,2.157-0.025,3.042-0.076c0.883-0.051,1.584-0.076,2.108-0.076
			c0.413,0,0.623,0.312,0.623,0.934c0,0.831-0.365,2.057-1.092,3.67c-0.728,1.612-1.559,3.251-2.496,4.915
			c-0.937,1.665-1.822,3.176-2.654,4.522c-0.831,1.359-1.352,2.19-1.559,2.502c-2.397,3.327-5.048,6.451-7.96,9.36
			c-2.914,2.915-6.036,5.46-9.364,7.645c6.345,3.334,10.768,7.78,13.266,13.349c2.496,5.562,3.744,11.678,3.744,18.333
			c0,2.395-0.077,5.049-0.232,7.963c-0.158,2.916-0.444,5.798-0.86,8.663c-0.416,2.863-0.937,5.484-1.559,7.88
			c-0.625,2.395-1.458,4.268-2.498,5.619c-1.147,1.455-2.367,2.731-3.668,3.823c-1.301,1.093-2.314,1.639-3.041,1.639h-22.318
			c-0.521,0-0.782-0.679-0.782-2.03c0-0.935,0.08-2.027,0.236-3.278c0.155-1.245,0.362-2.547,0.625-3.899
			c0.258-1.352,0.493-2.63,0.702-3.823c0.207-1.199,0.362-2.158,0.467-2.889c0.625-4.058,0.937-8.427,0.937-13.107
			c0-2.705-0.181-5.359-0.546-7.963c-0.365-2.597-1.013-5.042-1.949-7.334c-0.937-2.287-2.184-4.369-3.747-6.243
			c-1.559-1.873-3.588-3.377-6.086-4.527H356.636z"/>
		<path fill="#F6921E" d="M544.227,338.625c0.832,1.766,1.532,3.588,2.108,5.462c0.566,1.873,0.855,3.689,0.855,5.46
			c0,3.957-1.665,7.411-4.995,10.377c-3.329,2.965-7.645,5.595-12.949,7.881c-5.309,2.292-11.215,4.267-17.714,5.93
			c-6.504,1.664-12.903,3.176-19.199,4.528c-6.295,1.353-12.146,2.553-17.558,3.588c-5.41,1.041-9.623,2.133-12.639,3.276
			c0.416,4.681,1.377,8.561,2.886,11.628c1.509,3.073,3.382,5.518,5.62,7.334c2.234,1.823,4.705,3.099,7.413,3.823
			c2.702,0.729,5.46,1.092,8.272,1.092c2.185,0,4.313-0.178,6.396-0.546c2.08-0.363,4.004-0.857,5.775-1.479
			c1.765-0.622,3.3-1.302,4.605-2.032c1.299-0.724,2.261-1.454,2.885-2.185c1.248-1.346,2.367-3.353,3.357-6.007
			c0.986-2.655,2.156-5.303,3.512-7.957c1.349-2.654,3.067-5.049,5.149-7.182c2.079-2.127,4.836-3.354,8.271-3.665h0.312
			c0.727,0,1.585-0.025,2.575-0.083c0.987-0.051,2.056-0.076,3.2-0.076s2.311,0.076,3.509,0.235
			c1.198,0.159,2.264,0.419,3.199,0.781c0.937,0.362,1.69,0.934,2.265,1.715c0.572,0.781,0.856,1.797,0.856,3.041
			c0,1.981-0.674,4.268-2.025,6.871c-1.353,2.604-3.021,5.227-4.998,7.881s-4.11,5.176-6.396,7.569
			c-2.288,2.395-4.368,4.319-6.241,5.772c-5.618,4.369-12.485,7.646-20.602,9.831c-8.114,2.185-16.387,3.282-24.812,3.282
			c-7.284,0-13.841-0.679-19.665-2.031c-5.828-1.354-10.795-3.588-14.903-6.713c-4.111-3.118-7.258-7.176-9.442-12.173
			c-2.185-4.991-3.277-11.133-3.277-18.416c0-8.116,1.378-16.148,4.135-24.112c2.756-7.957,6.997-15.057,12.719-21.299
			s12.977-11.316,21.771-15.215c8.79-3.905,19.273-5.854,31.447-5.854c4.472,0,8.973,0.336,13.5,1.016
			c4.524,0.673,8.765,1.791,12.718,3.354c3.953,1.562,7.493,3.619,10.614,6.166c3.12,2.553,5.562,5.696,7.333,9.442L544.227,338.625
			z M503.182,337.375c-3.642-1.664-7.96-2.496-12.952-2.496c-3.747,0-7.362,0.496-10.85,1.48c-3.485,0.991-6.111,2.528-7.881,4.604
			c-1.353,1.562-2.523,3.588-3.511,6.09c-0.988,2.495-1.871,5.175-2.651,8.033c-0.781,2.864-1.407,5.753-1.874,8.662
			c-0.47,2.915-0.857,5.569-1.172,7.964c1.769-0.419,4.24-0.966,7.414-1.639c3.172-0.68,6.634-1.512,10.381-2.502
			c3.742-0.984,7.541-2.076,11.392-3.276c3.848-1.194,7.334-2.572,10.455-4.134s5.672-3.277,7.646-5.149
			c1.977-1.873,2.966-3.9,2.966-6.084c0-2.394-0.989-4.654-2.966-6.788C507.604,340.004,505.47,338.415,503.182,337.375z"/>
		<path fill="#929497" d="M672.666,321.302h16.387h0.311c0.313,0,0.472,0.21,0.472,0.623v0.47l-12.329,89.887
			c-0.315,0.528-0.757,1.327-1.328,2.419c-0.576,1.093-1.276,2.185-2.108,3.277c-0.833,1.093-1.715,2.059-2.651,2.89
			c-0.937,0.833-1.928,1.251-2.966,1.251c-1.457,0-3.175,0.051-5.15,0.151c-1.978,0.108-3.901,0.159-5.774,0.159
			c-1.874,0-3.487-0.125-4.836-0.394c-1.356-0.254-2.474-0.545-3.356-0.855c-0.886-0.312-1.639-0.598-2.263-0.858
			c-0.625-0.26-1.199-0.388-1.719-0.388c-0.416,0-0.934,0.103-1.56,0.311v-0.156c-3.642,1.458-8.014,2.576-13.108,3.358
			c-5.102,0.779-10.406,1.167-15.918,1.167c-6.973,0-13.4-0.597-19.277-1.797c-5.875-1.192-10.976-3.276-15.295-6.241
			c-4.317-2.967-7.669-6.967-10.063-12.016c-2.396-5.048-3.587-11.417-3.587-19.12c0-6.134,0.907-12.485,2.73-19.038
			c1.819-6.554,4.603-12.77,8.347-18.65c3.746-5.874,8.452-11.101,14.126-15.686c5.666-4.572,12.351-7.906,20.055-9.982
			c3.326-0.939,7.099-1.664,11.312-2.191c4.214-0.514,8.608-0.775,13.189-0.775c4.996,0,9.857,0.363,14.59,1.092
			c4.734,0.725,8.978,1.817,12.719,3.277c0.832,0.21,1.511,0.312,2.03,0.312c1.144,0,2.235-0.394,3.275-1.169
			c1.044-0.781,2.188-1.175,3.437-1.175l0.154,0.159L672.666,321.302z M627.252,334.567c-3.436,0-6.397,0.26-8.896,0.775
			c-2.496,0.527-4.659,1.359-6.479,2.502c-1.818,1.143-3.352,2.648-4.602,4.521c-1.248,1.874-2.396,4.115-3.434,6.712
			c-1.248,3.436-2.445,7.855-3.587,13.266c-1.147,5.411-1.718,10.98-1.718,16.701c0,4.16,0.391,8.034,1.168,11.628
			c0.779,3.587,2.132,6.737,4.058,9.441c1.924,2.706,4.499,4.833,7.725,6.395c3.227,1.562,7.339,2.344,12.329,2.344
			c3.85,0,7.515-0.494,11.005-1.485c3.484-0.984,6.109-2.521,7.881-4.604c0.937-1.035,1.974-2.883,3.121-5.537
			c1.143-2.654,2.21-5.747,3.2-9.284c0.987-3.537,1.815-7.36,2.496-11.475c0.675-4.108,1.013-8.191,1.013-12.25
			c0-4.16-0.416-8.059-1.249-11.703c-0.831-3.639-2.21-6.788-4.133-9.443c-1.927-2.654-4.526-4.73-7.806-6.242
			C636.07,335.323,632.037,334.567,627.252,334.567z"/>
		<path fill="#929497" d="M781.597,319.117c7.49,0,14.228,0.673,20.21,2.027c5.983,1.352,11.052,3.511,15.217,6.477
			c4.158,2.965,7.333,6.838,9.521,11.627c2.185,4.788,3.277,10.611,3.277,17.476c0,11.24-1.743,21.095-5.229,29.579
			c-3.487,8.478-8.326,15.552-14.515,21.223c-6.19,5.671-13.556,9.964-22.082,12.873c-8.531,2.913-17.789,4.374-27.779,4.374
			c-3.957,0-7.859-0.183-11.706-0.547c-3.848-0.366-7.491-1.066-10.923-2.107l-4.528,31.834c-0.106,0.832-0.522,1.848-1.246,3.048
			c-0.729,1.193-1.561,2.337-2.498,3.429c-0.936,1.093-1.897,2.032-2.886,2.814c-0.991,0.781-1.796,1.168-2.42,1.168l-22.316,0.158
			h-0.471c-0.413,0-0.622-0.215-0.622-0.629l-0.155,0.16l17.79-131.254c0.101-0.832,0.521-1.816,1.248-2.965
			c0.727-1.143,1.561-2.235,2.499-3.277c0.936-1.035,1.896-1.924,2.886-2.655c0.986-0.723,1.794-1.092,2.419-1.092h16.543
			c1.249,0,2.313,0.342,3.2,1.017c0.882,0.679,1.894,1.016,3.041,1.016c1.146,0,2.473-0.312,3.979-0.941
			c1.508-0.621,3.487-1.269,5.93-1.949c2.447-0.673,5.414-1.327,8.9-1.949C772.36,319.428,776.604,319.117,781.597,319.117z
			 M784.718,338.625c-1.772-0.831-3.771-1.428-6.01-1.796c-2.237-0.362-4.548-0.546-6.943-0.546c-3.854,0-7.491,0.47-10.924,1.403
			c-3.434,0.939-6.034,2.445-7.803,4.528c-0.936,1.143-1.98,3.041-3.12,5.696c-1.148,2.654-2.214,5.747-3.203,9.284
			c-0.99,3.537-1.818,7.392-2.494,11.551c-0.681,4.16-1.016,8.268-1.016,12.326c0,4.166,0.388,8.039,1.17,11.627
			c0.782,3.589,2.132,6.688,4.058,9.284c1.927,2.604,4.527,4.661,7.806,6.166c3.274,1.513,7.357,2.268,12.25,2.268
			c3.745,0,7.383-0.47,10.924-1.41c3.533-0.934,6.188-2.438,7.957-4.521c0.939-1.144,1.977-3.048,3.124-5.696
			c1.145-2.654,2.188-5.746,3.121-9.29c0.936-3.531,1.743-7.36,2.418-11.469c0.677-4.108,1.014-8.192,1.014-12.25
			c0-5.932-0.91-11.392-2.729-16.39C792.494,344.398,789.295,340.81,784.718,338.625z"/>
		<path fill="#929497" d="M925.799,319.117c7.49,0,14.224,0.673,20.211,2.027c5.98,1.352,11.053,3.511,15.214,6.477
			c4.161,2.965,7.336,6.838,9.522,11.627c2.186,4.788,3.276,10.611,3.276,17.476c0,11.24-1.743,21.095-5.23,29.579
			c-3.486,8.478-8.323,15.552-14.514,21.223s-13.552,9.964-22.083,12.873c-8.53,2.913-17.789,4.374-27.776,4.374
			c-3.956,0-7.859-0.183-11.704-0.547c-3.854-0.366-7.494-1.066-10.928-2.107l-4.526,31.834c-0.104,0.832-0.521,1.848-1.248,3.048
			c-0.726,1.193-1.558,2.337-2.493,3.429c-0.94,1.093-1.901,2.032-2.888,2.814c-0.99,0.781-1.798,1.168-2.418,1.168l-22.32,0.158
			h-0.47c-0.413,0-0.621-0.215-0.621-0.629l-0.157,0.16l17.789-131.254c0.104-0.832,0.523-1.816,1.249-2.965
			c0.728-1.143,1.563-2.235,2.499-3.277c0.937-1.035,1.896-1.924,2.888-2.655c0.987-0.723,1.794-1.092,2.418-1.092h16.542
			c1.247,0,2.316,0.342,3.202,1.017c0.883,0.679,1.895,1.016,3.043,1.016c1.14,0,2.467-0.312,3.978-0.941
			c1.507-0.621,3.483-1.269,5.931-1.949c2.445-0.673,5.408-1.327,8.896-1.949C916.562,319.428,920.806,319.117,925.799,319.117z
			 M928.92,338.625c-1.771-0.831-3.771-1.428-6.012-1.796c-2.237-0.362-4.549-0.546-6.941-0.546c-3.853,0-7.49,0.47-10.924,1.403
			c-3.436,0.939-6.036,2.445-7.805,4.528c-0.937,1.143-1.977,3.041-3.121,5.696c-1.146,2.654-2.214,5.747-3.2,9.284
			c-0.99,3.537-1.818,7.392-2.496,11.551c-0.679,4.16-1.016,8.268-1.016,12.326c0,4.166,0.392,8.039,1.173,11.627
			c0.779,3.589,2.131,6.688,4.057,9.284c1.924,2.604,4.523,4.661,7.806,6.166c3.276,1.513,7.355,2.268,12.248,2.268
			c3.747,0,7.386-0.47,10.926-1.41c3.534-0.934,6.188-2.438,7.957-4.521c0.936-1.144,1.977-3.048,3.12-5.696
			c1.148-2.654,2.188-5.746,3.122-9.29c0.937-3.531,1.743-7.36,2.421-11.469c0.675-4.108,1.016-8.192,1.016-12.25
			c0-5.932-0.912-11.392-2.731-16.39C936.697,344.398,933.495,340.81,928.92,338.625z"/>
	</g>
</g>
</svg>
